<svg width="27" height="27" viewBox="0 0 27 27" fill="none" xmlns="http://www.w3.org/2000/svg">
<path d="M7.06544 3.77777H4.03272C2.35779 3.77777 1 5.02142 1 6.55555V23.2222C1 24.7564 2.35779 26 4.03272 26H7.06544M16.1636 3.77777H19.1963C20.8713 3.77777 22.2291 5.02142 22.2291 6.55555V9.33332" stroke="#4E93E4" stroke-width="2" stroke-linecap="round" stroke-linejoin="round"/>
<path d="M16.0149 25.0754L12.6991 25.6828L13.3622 22.6458C13.421 22.3769 13.5652 22.13 13.7769 21.9361L19.9544 16.2778L22.9872 13.5L26 16.2596L22.9673 19.0374L16.7898 24.6955C16.5781 24.8894 16.3085 25.0217 16.0149 25.0754Z" stroke="#4E93E4" stroke-width="2" stroke-linecap="round" stroke-linejoin="round"/>
<path d="M7.06543 3.77778C7.06543 2.24365 8.42322 1 10.0982 1H13.1309C14.8058 1 16.1636 2.24365 16.1636 3.77778V6.55555H7.06543V3.77778Z" stroke="#4E93E4" stroke-width="2" stroke-linecap="round" stroke-linejoin="round"/>
</svg>
