<svg width="53" height="53" viewBox="0 0 53 53" fill="none" xmlns="http://www.w3.org/2000/svg">
<path d="M52.5 6.25V15H50V6.25C49.9987 5.25584 49.6032 4.30279 48.9002 3.59981C48.1972 2.89684 47.2442 2.50132 46.25 2.5H37.5V0H46.25C47.907 0.00198482 49.4956 0.661102 50.6672 1.83277C51.8389 3.00445 52.498 4.59301 52.5 6.25ZM6.25 50C5.25584 49.9987 4.30279 49.6032 3.59981 48.9002C2.89684 48.1972 2.50132 47.2442 2.5 46.25V37.5H0V46.25C0.00198482 47.907 0.661102 49.4956 1.83277 50.6672C3.00445 51.8389 4.59301 52.498 6.25 52.5H15V50H6.25ZM50 46.25C49.9987 47.2442 49.6032 48.1972 48.9002 48.9002C48.1972 49.6032 47.2442 49.9987 46.25 50H37.5V52.5H46.25C47.907 52.498 49.4956 51.8389 50.6672 50.6672C51.8389 49.4956 52.498 47.907 52.5 46.25V37.5H50V46.25ZM2.5 6.25C2.50132 5.25584 2.89684 4.30279 3.59981 3.59981C4.30279 2.89684 5.25584 2.50132 6.25 2.5H15V0H6.25C4.59301 0.00198482 3.00445 0.661102 1.83277 1.83277C0.661102 3.00445 0.00198482 4.59301 0 6.25V15H2.5V6.25ZM20 42.5V10H17.5V42.5H20ZM10 10V42.5H15V10H10ZM30 42.5V10H25V42.5H30ZM37.5 10V42.5H42.5V10H37.5ZM32.5 10V42.5H35V10H32.5Z" fill="#666676"/>
</svg>
