<svg  viewBox="0 0 121 24" fill="none" xmlns="http://www.w3.org/2000/svg">
<path fill-rule="evenodd" clip-rule="evenodd" d="M4 7V6C4 5.20435 4.31607 4.44129 4.87868 3.87868C5.44129 3.31607 6.20435 3 7 3H9C9.79565 3 10.5587 3.31607 11.1213 3.87868C11.6839 4.44129 12 5.20435 12 6V7H14C14.5304 7 15.0391 7.21071 15.4142 7.58579C15.7893 7.96086 16 8.46957 16 9V12.57C13.4396 13.5187 10.7305 14.003 8 14C5.2695 14.003 2.56037 13.5188 0 12.57V9C0 8.46957 0.210714 7.96086 0.585786 7.58579C0.960859 7.21071 1.46957 7 2 7H4ZM6 6C6 5.73478 6.10536 5.48043 6.29289 5.29289C6.48043 5.10536 6.73478 5 7 5H9C9.26522 5 9.51957 5.10536 9.70711 5.29289C9.89464 5.48043 10 5.73478 10 6V7H6V6ZM7 11C7 10.7348 7.10536 10.4804 7.29289 10.2929C7.48043 10.1054 7.73478 10 8 10H8.01C8.27522 10 8.52957 10.1054 8.71711 10.2929C8.90464 10.4804 9.01 10.7348 9.01 11C9.01 11.2652 8.90464 11.5196 8.71711 11.7071C8.52957 11.8946 8.27522 12 8.01 12H8C7.73478 12 7.48043 11.8946 7.29289 11.7071C7.10536 11.5196 7 11.2652 7 11Z" fill="#065f46"/>
<path d="M0 14.6919V16.9999C0 17.5303 0.210714 18.039 0.585786 18.4141C0.960859 18.7892 1.46957 18.9999 2 18.9999H14C14.5304 18.9999 15.0391 18.7892 15.4142 18.4141C15.7893 18.039 16 17.5303 16 16.9999V14.6919C13.4224 15.5607 10.7201 16.0025 8 15.9999C5.204 15.9999 2.513 15.5399 0 14.6919Z" fill="#065f46"/>
<path d="M31.56 5.06V15.36C31.56 16.5067 31.2067 17.4267 30.5 18.12C29.7933 18.8 28.86 19.14 27.7 19.14C26.5267 19.14 25.5867 18.7933 24.88 18.1C24.1733 17.3933 23.82 16.4333 23.82 15.22H25.64C25.6533 15.9 25.8267 16.4533 26.16 16.88C26.5067 17.3067 27.02 17.52 27.7 17.52C28.38 17.52 28.8867 17.32 29.22 16.92C29.5533 16.5067 29.72 15.9867 29.72 15.36V5.06H31.56ZM39.7255 19.18C38.6988 19.18 37.7655 18.9467 36.9255 18.48C36.0988 18.0133 35.4455 17.3533 34.9655 16.5C34.4988 15.6333 34.2655 14.6333 34.2655 13.5C34.2655 12.38 34.5055 11.3933 34.9855 10.54C35.4788 9.67333 36.1455 9.01333 36.9855 8.56C37.8255 8.09333 38.7655 7.86 39.8055 7.86C40.8455 7.86 41.7855 8.09333 42.6255 8.56C43.4655 9.01333 44.1255 9.66667 44.6055 10.52C45.0988 11.3733 45.3455 12.3667 45.3455 13.5C45.3455 14.6333 45.0921 15.6333 44.5855 16.5C44.0921 17.3533 43.4188 18.0133 42.5655 18.48C41.7121 18.9467 40.7655 19.18 39.7255 19.18ZM39.7255 17.58C40.3788 17.58 40.9921 17.4267 41.5655 17.12C42.1388 16.8133 42.5988 16.3533 42.9455 15.74C43.3055 15.1267 43.4855 14.38 43.4855 13.5C43.4855 12.62 43.3121 11.8733 42.9655 11.26C42.6188 10.6467 42.1655 10.1933 41.6055 9.9C41.0455 9.59333 40.4388 9.44 39.7855 9.44C39.1188 9.44 38.5055 9.59333 37.9455 9.9C37.3988 10.1933 36.9588 10.6467 36.6255 11.26C36.2921 11.8733 36.1255 12.62 36.1255 13.5C36.1255 14.3933 36.2855 15.1467 36.6055 15.76C36.9388 16.3733 37.3788 16.8333 37.9255 17.14C38.4721 17.4333 39.0721 17.58 39.7255 17.58ZM49.3584 10.08C49.7318 9.42667 50.2784 8.89333 50.9984 8.48C51.7184 8.06667 52.5384 7.86 53.4584 7.86C54.4451 7.86 55.3318 8.09333 56.1184 8.56C56.9051 9.02667 57.5251 9.68667 57.9784 10.54C58.4318 11.38 58.6584 12.36 58.6584 13.48C58.6584 14.5867 58.4318 15.5733 57.9784 16.44C57.5251 17.3067 56.8984 17.98 56.0984 18.46C55.3118 18.94 54.4318 19.18 53.4584 19.18C52.5118 19.18 51.6784 18.9733 50.9584 18.56C50.2518 18.1467 49.7184 17.62 49.3584 16.98V19H47.5384V4.2H49.3584V10.08ZM56.7984 13.48C56.7984 12.6533 56.6318 11.9333 56.2984 11.32C55.9651 10.7067 55.5118 10.24 54.9384 9.92C54.3784 9.6 53.7584 9.44 53.0784 9.44C52.4118 9.44 51.7918 9.60667 51.2184 9.94C50.6584 10.26 50.2051 10.7333 49.8584 11.36C49.5251 11.9733 49.3584 12.6867 49.3584 13.5C49.3584 14.3267 49.5251 15.0533 49.8584 15.68C50.2051 16.2933 50.6584 16.7667 51.2184 17.1C51.7918 17.42 52.4118 17.58 53.0784 17.58C53.7584 17.58 54.3784 17.42 54.9384 17.1C55.5118 16.7667 55.9651 16.2933 56.2984 15.68C56.6318 15.0533 56.7984 14.32 56.7984 13.48ZM63.9741 9.42C64.2941 8.9 64.7541 8.48 65.3541 8.16C65.9541 7.84 66.6407 7.68 67.4141 7.68C68.3341 7.68 69.1674 7.91333 69.9141 8.38C70.6607 8.84667 71.2474 9.51333 71.6741 10.38C72.1141 11.2467 72.3341 12.2533 72.3341 13.4C72.3341 14.5467 72.1141 15.56 71.6741 16.44C71.2474 17.3067 70.6607 17.98 69.9141 18.46C69.1674 18.9267 68.3341 19.16 67.4141 19.16C66.6274 19.16 65.9407 19.0067 65.3541 18.7C64.7674 18.38 64.3074 17.96 63.9741 17.44V19H60.5541V4.2H63.9741V9.42ZM68.8541 13.4C68.8541 12.5467 68.6141 11.88 68.1341 11.4C67.6674 10.9067 67.0874 10.66 66.3941 10.66C65.7141 10.66 65.1341 10.9067 64.6541 11.4C64.1874 11.8933 63.9541 12.5667 63.9541 13.42C63.9541 14.2733 64.1874 14.9467 64.6541 15.44C65.1341 15.9333 65.7141 16.18 66.3941 16.18C67.0741 16.18 67.6541 15.9333 68.1341 15.44C68.6141 14.9333 68.8541 14.2533 68.8541 13.4ZM79.0083 19.16C77.9149 19.16 76.9283 18.9267 76.0483 18.46C75.1816 17.9933 74.4949 17.3267 73.9883 16.46C73.4949 15.5933 73.2483 14.58 73.2483 13.42C73.2483 12.2733 73.5016 11.2667 74.0083 10.4C74.5149 9.52 75.2083 8.84667 76.0883 8.38C76.9683 7.91333 77.9549 7.68 79.0483 7.68C80.1416 7.68 81.1283 7.91333 82.0083 8.38C82.8883 8.84667 83.5816 9.52 84.0883 10.4C84.5949 11.2667 84.8483 12.2733 84.8483 13.42C84.8483 14.5667 84.5883 15.58 84.0683 16.46C83.5616 17.3267 82.8616 17.9933 81.9683 18.46C81.0883 18.9267 80.1016 19.16 79.0083 19.16ZM79.0083 16.2C79.6616 16.2 80.2149 15.96 80.6683 15.48C81.1349 15 81.3683 14.3133 81.3683 13.42C81.3683 12.5267 81.1416 11.84 80.6883 11.36C80.2483 10.88 79.7016 10.64 79.0483 10.64C78.3816 10.64 77.8283 10.88 77.3883 11.36C76.9483 11.8267 76.7283 12.5133 76.7283 13.42C76.7283 14.3133 76.9416 15 77.3683 15.48C77.8083 15.96 78.3549 16.2 79.0083 16.2ZM85.7827 13.4C85.7827 12.2533 85.996 11.2467 86.4227 10.38C86.8627 9.51333 87.456 8.84667 88.2027 8.38C88.9493 7.91333 89.7827 7.68 90.7027 7.68C91.4893 7.68 92.176 7.84 92.7627 8.16C93.3627 8.48 93.8227 8.9 94.1427 9.42V7.84H97.5627V19H94.1427V17.42C93.8093 17.94 93.3427 18.36 92.7427 18.68C92.156 19 91.4693 19.16 90.6827 19.16C89.776 19.16 88.9493 18.9267 88.2027 18.46C87.456 17.98 86.8627 17.3067 86.4227 16.44C85.996 15.56 85.7827 14.5467 85.7827 13.4ZM94.1427 13.42C94.1427 12.5667 93.9027 11.8933 93.4227 11.4C92.956 10.9067 92.3827 10.66 91.7027 10.66C91.0227 10.66 90.4427 10.9067 89.9627 11.4C89.496 11.88 89.2627 12.5467 89.2627 13.4C89.2627 14.2533 89.496 14.9333 89.9627 15.44C90.4427 15.9333 91.0227 16.18 91.7027 16.18C92.3827 16.18 92.956 15.9333 93.4227 15.44C93.9027 14.9467 94.1427 14.2733 94.1427 13.42ZM103.257 9.7C103.657 9.08667 104.157 8.60667 104.757 8.26C105.357 7.9 106.024 7.72 106.757 7.72V11.34H105.817C104.964 11.34 104.324 11.5267 103.897 11.9C103.47 12.26 103.257 12.9 103.257 13.82V19H99.8369V7.84H103.257V9.7ZM107.512 13.4C107.512 12.2533 107.725 11.2467 108.152 10.38C108.592 9.51333 109.185 8.84667 109.932 8.38C110.678 7.91333 111.512 7.68 112.432 7.68C113.165 7.68 113.832 7.83333 114.432 8.14C115.045 8.44667 115.525 8.86 115.872 9.38V4.2H119.292V19H115.872V17.4C115.552 17.9333 115.092 18.36 114.492 18.68C113.905 19 113.218 19.16 112.432 19.16C111.512 19.16 110.678 18.9267 109.932 18.46C109.185 17.98 108.592 17.3067 108.152 16.44C107.725 15.56 107.512 14.5467 107.512 13.4ZM115.872 13.42C115.872 12.5667 115.632 11.8933 115.152 11.4C114.685 10.9067 114.112 10.66 113.432 10.66C112.752 10.66 112.172 10.9067 111.692 11.4C111.225 11.88 110.992 12.5467 110.992 13.4C110.992 14.2533 111.225 14.9333 111.692 15.44C112.172 15.9333 112.752 16.18 113.432 16.18C114.112 16.18 114.685 15.9333 115.152 15.44C115.632 14.9467 115.872 14.2733 115.872 13.42Z" fill="#065f46"/>
</svg>
