<svg viewBox="0 0 107 17" fill="none" xmlns="http://www.w3.org/2000/svg">
<path d="M2.33398 16.1133H0L4.85352 0.673828H7.19727L2.33398 16.1133Z" fill="#065f46"/>
<path d="M6.94336 16.1133H4.60938L9.46289 0.673828H11.8066L6.94336 16.1133Z" fill="#065f46"/>
<path d="M26.0547 12.2363H21.3574L20.5371 14.8926H16.875L22.0898 0.673828H25.3125L30.5664 14.8926H26.8848L26.0547 12.2363ZM22.1777 9.58984H25.2344L23.7012 4.6582L22.1777 9.58984Z" fill="#065f46"/>
<path d="M34.9316 14.8926H31.6309V4.32617H34.9316V14.8926ZM31.4355 1.60156C31.4355 1.13281 31.6048 0.748698 31.9434 0.449219C32.2819 0.14974 32.7214 0 33.2617 0C33.8021 0 34.2415 0.14974 34.5801 0.449219C34.9186 0.748698 35.0879 1.13281 35.0879 1.60156C35.0879 2.07031 34.9186 2.45443 34.5801 2.75391C34.2415 3.05339 33.8021 3.20312 33.2617 3.20312C32.7214 3.20312 32.2819 3.05339 31.9434 2.75391C31.6048 2.45443 31.4355 2.07031 31.4355 1.60156Z" fill="#065f46"/>
<path d="M43.3594 7.30469L42.2754 7.22656C41.2402 7.22656 40.5762 7.55208 40.2832 8.20312V14.8926H36.9922V4.32617H40.0781L40.1855 5.68359C40.7389 4.64844 41.5104 4.13086 42.5 4.13086C42.8516 4.13086 43.1576 4.16992 43.418 4.24805L43.3594 7.30469Z" fill="#065f46"/>
<path d="M52.5 11.2305C52.5 10.6055 52.2786 10.1237 51.8359 9.78516C51.3997 9.44661 50.6087 9.10482 49.4629 8.75977C48.3171 8.41471 47.4056 8.0306 46.7285 7.60742C45.4329 6.79362 44.7852 5.73242 44.7852 4.42383C44.7852 3.27799 45.2507 2.33398 46.1816 1.5918C47.1191 0.849609 48.3333 0.478516 49.8242 0.478516C50.8138 0.478516 51.696 0.660807 52.4707 1.02539C53.2454 1.38997 53.8542 1.91081 54.2969 2.58789C54.7396 3.25846 54.9609 4.00391 54.9609 4.82422H52.5C52.5 4.08203 52.2656 3.5026 51.7969 3.08594C51.3346 2.66276 50.6706 2.45117 49.8047 2.45117C48.9974 2.45117 48.3691 2.6237 47.9199 2.96875C47.4772 3.3138 47.2559 3.79557 47.2559 4.41406C47.2559 4.9349 47.4967 5.37109 47.9785 5.72266C48.4603 6.06771 49.2546 6.40625 50.3613 6.73828C51.4681 7.0638 52.3568 7.43815 53.0273 7.86133C53.6979 8.27799 54.1895 8.75977 54.502 9.30664C54.8145 9.84701 54.9707 10.4818 54.9707 11.2109C54.9707 12.3958 54.515 13.3398 53.6035 14.043C52.6986 14.7396 51.4681 15.0879 49.9121 15.0879C48.8835 15.0879 47.9362 14.8991 47.0703 14.5215C46.2109 14.1374 45.5404 13.61 45.0586 12.9395C44.5833 12.2689 44.3457 11.4876 44.3457 10.5957H46.8164C46.8164 11.403 47.0833 12.028 47.6172 12.4707C48.151 12.9134 48.916 13.1348 49.9121 13.1348C50.7715 13.1348 51.416 12.9622 51.8457 12.6172C52.2819 12.2656 52.5 11.8034 52.5 11.2305Z" fill="#065f46"/>
<path d="M59.8828 1.75781V4.32617H61.748V6.08398H59.8828V11.9824C59.8828 12.3861 59.9609 12.679 60.1172 12.8613C60.2799 13.0371 60.5664 13.125 60.9766 13.125C61.25 13.125 61.5267 13.0924 61.8066 13.0273V14.8633C61.2663 15.013 60.7454 15.0879 60.2441 15.0879C58.4212 15.0879 57.5098 14.082 57.5098 12.0703V6.08398H55.7715V4.32617H57.5098V1.75781H59.8828Z" fill="#065f46"/>
<path d="M69.1016 6.49414C68.7891 6.44206 68.4668 6.41602 68.1348 6.41602C67.0475 6.41602 66.3151 6.83268 65.9375 7.66602V14.8926H63.5645V4.32617H65.8301L65.8887 5.50781C66.4616 4.58984 67.2559 4.13086 68.2715 4.13086C68.61 4.13086 68.89 4.17643 69.1113 4.26758L69.1016 6.49414Z" fill="#065f46"/>
<path d="M75.0586 15.0879C73.5547 15.0879 72.334 14.6159 71.3965 13.6719C70.4655 12.7214 70 11.4583 70 9.88281V9.58984C70 8.53516 70.2018 7.5944 70.6055 6.76758C71.0156 5.93424 71.5885 5.28646 72.3242 4.82422C73.0599 4.36198 73.8802 4.13086 74.7852 4.13086C76.224 4.13086 77.334 4.58984 78.1152 5.50781C78.903 6.42578 79.2969 7.72461 79.2969 9.4043V10.3613H72.3926C72.4642 11.2337 72.7539 11.9238 73.2617 12.4316C73.776 12.9395 74.4206 13.1934 75.1953 13.1934C76.2826 13.1934 77.168 12.7539 77.8516 11.875L79.1309 13.0957C78.7077 13.7272 78.1413 14.2188 77.4316 14.5703C76.7285 14.9154 75.9375 15.0879 75.0586 15.0879ZM74.7754 6.03516C74.1243 6.03516 73.597 6.26302 73.1934 6.71875C72.7962 7.17448 72.5423 7.80924 72.4316 8.62305H76.9531V8.44727C76.901 7.65299 76.6895 7.05404 76.3184 6.65039C75.9473 6.24023 75.4329 6.03516 74.7754 6.03516Z" fill="#065f46"/>
<path d="M87.4609 14.8926C87.3568 14.6908 87.2656 14.362 87.1875 13.9062C86.4323 14.694 85.5078 15.0879 84.4141 15.0879C83.3529 15.0879 82.487 14.7852 81.8164 14.1797C81.1458 13.5742 80.8105 12.8255 80.8105 11.9336C80.8105 10.8073 81.2272 9.94466 82.0605 9.3457C82.9004 8.74023 84.0983 8.4375 85.6543 8.4375H87.1094V7.74414C87.1094 7.19727 86.9564 6.76107 86.6504 6.43555C86.3444 6.10352 85.8789 5.9375 85.2539 5.9375C84.7135 5.9375 84.2708 6.07422 83.9258 6.34766C83.5807 6.61458 83.4082 6.95638 83.4082 7.37305H81.0352C81.0352 6.79362 81.2272 6.25326 81.6113 5.75195C81.9954 5.24414 82.5163 4.84701 83.1738 4.56055C83.8379 4.27409 84.5768 4.13086 85.3906 4.13086C86.6276 4.13086 87.6139 4.44336 88.3496 5.06836C89.0853 5.68685 89.4629 6.55924 89.4824 7.68555V12.4512C89.4824 13.4017 89.6159 14.1602 89.8828 14.7266V14.8926H87.4609ZM84.8535 13.1836C85.3223 13.1836 85.7617 13.0697 86.1719 12.8418C86.5885 12.6139 86.901 12.3079 87.1094 11.9238V9.93164H85.8301C84.9512 9.93164 84.2904 10.0846 83.8477 10.3906C83.4049 10.6966 83.1836 11.1296 83.1836 11.6895C83.1836 12.1452 83.3333 12.5098 83.6328 12.7832C83.9388 13.0501 84.3457 13.1836 84.8535 13.1836Z" fill="#065f46"/>
<path d="M94.1992 4.32617L94.2676 5.42969C95.0098 4.5638 96.0254 4.13086 97.3145 4.13086C98.7272 4.13086 99.694 4.67122 100.215 5.75195C100.983 4.67122 102.064 4.13086 103.457 4.13086C104.622 4.13086 105.488 4.45312 106.055 5.09766C106.628 5.74219 106.921 6.69271 106.934 7.94922V14.8926H104.561V8.01758C104.561 7.34701 104.414 6.85547 104.121 6.54297C103.828 6.23047 103.343 6.07422 102.666 6.07422C102.126 6.07422 101.683 6.2207 101.338 6.51367C100.999 6.80013 100.762 7.17773 100.625 7.64648L100.635 14.8926H98.2617V7.93945C98.2292 6.69596 97.5944 6.07422 96.3574 6.07422C95.4069 6.07422 94.7331 6.46159 94.3359 7.23633V14.8926H91.9629V4.32617H94.1992Z" fill="#065f46"/>
</svg>
