<svg viewBox="0 0 140 25" fill="none" xmlns="http://www.w3.org/2000/svg">
<path d="M25 9.54H22.7V19H20.88V9.54H19.46V8.04H20.88V7.26C20.88 6.03333 21.1933 5.14 21.82 4.58C22.46 4.00667 23.48 3.72 24.88 3.72V5.24C24.08 5.24 23.5133 5.4 23.18 5.72C22.86 6.02667 22.7 6.54 22.7 7.26V8.04H25V9.54ZM26.242 13.48C26.242 12.36 26.4687 11.38 26.922 10.54C27.3754 9.68667 27.9954 9.02667 28.782 8.56C29.582 8.09333 30.4687 7.86 31.442 7.86C32.402 7.86 33.2354 8.06667 33.942 8.48C34.6487 8.89333 35.1754 9.41333 35.522 10.04V8.04H37.362V19H35.522V16.96C35.162 17.6 34.622 18.1333 33.902 18.56C33.1954 18.9733 32.3687 19.18 31.422 19.18C30.4487 19.18 29.5687 18.94 28.782 18.46C27.9954 17.98 27.3754 17.3067 26.922 16.44C26.4687 15.5733 26.242 14.5867 26.242 13.48ZM35.522 13.5C35.522 12.6733 35.3554 11.9533 35.022 11.34C34.6887 10.7267 34.2354 10.26 33.662 9.94C33.102 9.60667 32.482 9.44 31.802 9.44C31.122 9.44 30.502 9.6 29.942 9.92C29.382 10.24 28.9354 10.7067 28.602 11.32C28.2687 11.9333 28.102 12.6533 28.102 13.48C28.102 14.32 28.2687 15.0533 28.602 15.68C28.9354 16.2933 29.382 16.7667 29.942 17.1C30.502 17.42 31.122 17.58 31.802 17.58C32.482 17.58 33.102 17.42 33.662 17.1C34.2354 16.7667 34.6887 16.2933 35.022 15.68C35.3554 15.0533 35.522 14.3267 35.522 13.5ZM44.1177 19.18C43.2777 19.18 42.5243 19.04 41.8577 18.76C41.191 18.4667 40.6643 18.0667 40.2777 17.56C39.891 17.04 39.6777 16.4467 39.6377 15.78H41.5177C41.571 16.3267 41.8243 16.7733 42.2777 17.12C42.7443 17.4667 43.351 17.64 44.0977 17.64C44.791 17.64 45.3377 17.4867 45.7377 17.18C46.1377 16.8733 46.3377 16.4867 46.3377 16.02C46.3377 15.54 46.1243 15.1867 45.6977 14.96C45.271 14.72 44.611 14.4867 43.7177 14.26C42.9043 14.0467 42.2377 13.8333 41.7177 13.62C41.211 13.3933 40.771 13.0667 40.3977 12.64C40.0377 12.2 39.8577 11.6267 39.8577 10.92C39.8577 10.36 40.0243 9.84667 40.3577 9.38C40.691 8.91333 41.1643 8.54667 41.7777 8.28C42.391 8 43.091 7.86 43.8777 7.86C45.091 7.86 46.071 8.16667 46.8177 8.78C47.5643 9.39333 47.9643 10.2333 48.0177 11.3H46.1977C46.1577 10.7267 45.9243 10.2667 45.4977 9.92C45.0843 9.57333 44.5243 9.4 43.8177 9.4C43.1643 9.4 42.6443 9.54 42.2577 9.82C41.871 10.1 41.6777 10.4667 41.6777 10.92C41.6777 11.28 41.791 11.58 42.0177 11.82C42.2577 12.0467 42.551 12.2333 42.8977 12.38C43.2577 12.5133 43.751 12.6667 44.3777 12.84C45.1643 13.0533 45.8043 13.2667 46.2977 13.48C46.791 13.68 47.211 13.9867 47.5577 14.4C47.9177 14.8133 48.1043 15.3533 48.1177 16.02C48.1177 16.62 47.951 17.16 47.6177 17.64C47.2843 18.12 46.811 18.5 46.1977 18.78C45.5977 19.0467 44.9043 19.18 44.1177 19.18ZM52.7069 9.54V16C52.7069 16.5333 52.8202 16.9133 53.0469 17.14C53.2735 17.3533 53.6669 17.46 54.2269 17.46H55.5669V19H53.9269C52.9135 19 52.1535 18.7667 51.6469 18.3C51.1402 17.8333 50.8869 17.0667 50.8869 16V9.54H49.4669V8.04H50.8869V5.28H52.7069V8.04H55.5669V9.54H52.7069ZM62.532 4.96C64.012 4.96 65.3054 5.25333 66.412 5.84C67.5187 6.42667 68.372 7.25333 68.972 8.32C69.5854 9.37333 69.892 10.5933 69.892 11.98C69.892 13.3533 69.5854 14.5733 68.972 15.64C68.372 16.7067 67.512 17.5333 66.392 18.12C65.2854 18.7067 63.9987 19 62.532 19H57.272V4.96H62.532ZM62.312 16.04C63.6054 16.04 64.612 15.6867 65.332 14.98C66.052 14.2733 66.412 13.2733 66.412 11.98C66.412 10.6867 66.052 9.68 65.332 8.96C64.612 8.24 63.6054 7.88 62.312 7.88H60.692V16.04H62.312ZM82.1233 13.24C82.1233 13.56 82.1033 13.8933 82.0633 14.24H74.3233C74.3766 14.9333 74.5966 15.4667 74.9833 15.84C75.3833 16.2 75.8699 16.38 76.4433 16.38C77.2966 16.38 77.8899 16.02 78.2233 15.3H81.8633C81.6766 16.0333 81.3366 16.6933 80.8433 17.28C80.3633 17.8667 79.7566 18.3267 79.0233 18.66C78.2899 18.9933 77.4699 19.16 76.5633 19.16C75.4699 19.16 74.4966 18.9267 73.6433 18.46C72.7899 17.9933 72.1233 17.3267 71.6433 16.46C71.1633 15.5933 70.9233 14.58 70.9233 13.42C70.9233 12.26 71.1566 11.2467 71.6233 10.38C72.1033 9.51333 72.7699 8.84667 73.6233 8.38C74.4766 7.91333 75.4566 7.68 76.5633 7.68C77.6433 7.68 78.6033 7.90667 79.4433 8.36C80.2833 8.81333 80.9366 9.46 81.4033 10.3C81.8833 11.14 82.1233 12.12 82.1233 13.24ZM78.6233 12.34C78.6233 11.7533 78.4233 11.2867 78.0233 10.94C77.6233 10.5933 77.1233 10.42 76.5233 10.42C75.9499 10.42 75.4633 10.5867 75.0633 10.92C74.6766 11.2533 74.4366 11.7267 74.3433 12.34H78.6233ZM87.1475 4.2V19H83.7275V4.2H87.1475ZM91.1459 6.68C90.5459 6.68 90.0526 6.50667 89.6659 6.16C89.2926 5.8 89.1059 5.36 89.1059 4.84C89.1059 4.30667 89.2926 3.86667 89.6659 3.52C90.0526 3.16 90.5459 2.98 91.1459 2.98C91.7326 2.98 92.2126 3.16 92.5859 3.52C92.9726 3.86667 93.1659 4.30667 93.1659 4.84C93.1659 5.36 92.9726 5.8 92.5859 6.16C92.2126 6.50667 91.7326 6.68 91.1459 6.68ZM92.8459 7.84V19H89.4259V7.84H92.8459ZM100.144 15.8L102.564 7.84H106.204L102.244 19H98.0244L94.0644 7.84H97.7244L100.144 15.8ZM117.964 13.24C117.964 13.56 117.944 13.8933 117.904 14.24H110.164C110.217 14.9333 110.437 15.4667 110.824 15.84C111.224 16.2 111.711 16.38 112.284 16.38C113.137 16.38 113.731 16.02 114.064 15.3H117.704C117.517 16.0333 117.177 16.6933 116.684 17.28C116.204 17.8667 115.597 18.3267 114.864 18.66C114.131 18.9933 113.311 19.16 112.404 19.16C111.311 19.16 110.337 18.9267 109.484 18.46C108.631 17.9933 107.964 17.3267 107.484 16.46C107.004 15.5933 106.764 14.58 106.764 13.42C106.764 12.26 106.997 11.2467 107.464 10.38C107.944 9.51333 108.611 8.84667 109.464 8.38C110.317 7.91333 111.297 7.68 112.404 7.68C113.484 7.68 114.444 7.90667 115.284 8.36C116.124 8.81333 116.777 9.46 117.244 10.3C117.724 11.14 117.964 12.12 117.964 13.24ZM114.464 12.34C114.464 11.7533 114.264 11.2867 113.864 10.94C113.464 10.5933 112.964 10.42 112.364 10.42C111.791 10.42 111.304 10.5867 110.904 10.92C110.517 11.2533 110.277 11.7267 110.184 12.34H114.464ZM122.988 9.7C123.388 9.08667 123.888 8.60667 124.488 8.26C125.088 7.9 125.755 7.72 126.488 7.72V11.34H125.548C124.695 11.34 124.055 11.5267 123.628 11.9C123.201 12.26 122.988 12.9 122.988 13.82V19H119.568V7.84H122.988V9.7ZM139.323 7.84L132.323 24.3H128.643L131.203 18.62L126.663 7.84H130.483L133.063 14.82L135.623 7.84H139.323Z" fill="#1e293b"/>
<path fill-rule="evenodd" clip-rule="evenodd" d="M8.30045 4.04583C8.50345 4.10968 8.6808 4.23661 8.80669 4.40819C8.93258 4.57976 9.00046 4.78703 9.00045 4.99983V9.99983H13.0004C13.1834 9.99975 13.3628 10.0498 13.5192 10.1447C13.6757 10.2395 13.8031 10.3754 13.8876 10.5376C13.9722 10.6998 14.0106 10.8821 13.9988 11.0646C13.9869 11.2471 13.9253 11.4229 13.8204 11.5728L6.82044 21.5728C6.69862 21.7474 6.52428 21.8785 6.32278 21.9471C6.12129 22.0157 5.90317 22.0182 5.70014 21.9543C5.49711 21.8904 5.31978 21.7634 5.19394 21.5917C5.06809 21.42 5.00031 21.2127 5.00044 20.9998V15.9998H1.00045C0.817527 15.9999 0.63809 15.9498 0.481663 15.855C0.325235 15.7602 0.19781 15.6243 0.113255 15.4621C0.0286992 15.2999 -0.00974701 15.1176 0.00209983 14.9351C0.0139467 14.7525 0.0756328 14.5767 0.180445 14.4268L7.18045 4.42683C7.30246 4.25262 7.47683 4.12185 7.67825 4.05351C7.87966 3.98517 8.09761 3.98283 8.30045 4.04683V4.04583Z" fill="#166534"/>
</svg>
