<?xml version="1.0" standalone="no"?>
<!DOCTYPE svg PUBLIC "-//W3C//DTD SVG 20010904//EN"
 "http://www.w3.org/TR/2001/REC-SVG-20010904/DTD/svg10.dtd">
<svg version="1.0" xmlns="http://www.w3.org/2000/svg"
 width="512.000000pt" height="512.000000pt" viewBox="0 0 512.000000 512.000000"
 preserveAspectRatio="xMidYMid meet">
<metadata>
Created by potrace 1.14, written by Peter Selinger 2001-2017
</metadata>
<g transform="translate(0.000000,512.000000) scale(0.100000,-0.100000)"
fill="#000000" stroke="none">
<path d="M650 4299 c0 -4 52 -113 115 -244 63 -130 115 -238 115 -240 0 -1 41
-87 91 -191 50 -104 110 -229 134 -279 23 -49 75 -157 115 -240 40 -82 89
-186 110 -230 21 -44 77 -161 125 -260 48 -99 102 -211 120 -250 18 -38 68
-142 110 -230 43 -88 119 -248 170 -355 51 -107 128 -267 170 -355 42 -88 96
-200 120 -250 23 -49 72 -151 108 -225 l64 -136 47 1 c56 0 45 -16 160 225 46
96 116 243 156 325 40 83 96 200 125 260 29 61 87 182 130 270 123 255 213
442 265 550 26 55 87 181 135 280 48 99 110 227 137 285 28 58 97 201 154 319
57 117 104 214 104 216 0 2 53 113 118 246 66 134 127 261 137 282 l17 37 79
0 c44 0 79 -2 79 -5 0 -3 -28 -63 -61 -133 -34 -70 -90 -185 -124 -257 -34
-71 -97 -202 -140 -290 -126 -260 -204 -424 -255 -530 -26 -55 -82 -172 -125
-260 -77 -160 -148 -306 -275 -570 -37 -77 -100 -207 -140 -290 -40 -82 -94
-195 -120 -250 -26 -55 -91 -190 -145 -300 -111 -229 -174 -361 -185 -391 -8
-21 -7 -21 97 -20 l106 1 82 170 c46 94 117 242 160 330 43 88 97 201 120 250
23 50 75 158 115 240 72 150 144 298 280 580 40 83 99 206 132 275 34 69 89
184 123 255 34 72 96 200 137 285 166 343 213 440 268 555 127 265 203 423
231 479 16 32 29 61 29 65 0 3 -132 6 -292 6 l-293 0 -57 -115 c-32 -63 -75
-153 -97 -200 -22 -47 -84 -177 -139 -290 -55 -113 -128 -263 -162 -335 -34
-71 -96 -200 -137 -285 -42 -85 -92 -191 -113 -235 -21 -44 -84 -174 -140
-290 -56 -115 -129 -266 -162 -335 -33 -69 -83 -172 -111 -230 -28 -58 -51
-107 -52 -110 -1 -3 -42 -88 -91 -190 -50 -102 -128 -263 -174 -358 l-84 -173
-42 88 c-73 156 -120 255 -194 408 -40 83 -93 193 -117 245 -25 52 -75 156
-111 230 -35 74 -90 189 -122 255 -91 191 -277 578 -347 725 -36 74 -85 176
-108 225 -24 50 -75 158 -115 240 -40 83 -97 202 -127 265 -30 63 -70 147 -89
186 -19 39 -34 74 -34 78 0 3 121 6 270 6 l269 0 25 -52 c13 -29 56 -120 96
-203 99 -205 184 -383 235 -490 23 -49 75 -157 115 -240 40 -82 91 -190 115
-240 24 -49 81 -169 127 -265 46 -96 100 -208 118 -249 l34 -73 47 96 c26 53
50 104 54 115 5 17 -8 48 -187 421 -33 69 -77 161 -98 205 -21 44 -75 157
-120 250 -45 94 -97 202 -115 240 -18 39 -74 156 -124 260 -51 105 -117 242
-147 305 l-55 115 -485 0 c-266 0 -484 -3 -484 -6z"/>
<path d="M3493 4270 c-9 -19 -70 -145 -136 -280 -65 -135 -134 -276 -152 -315
-18 -38 -67 -142 -110 -230 -42 -88 -98 -203 -122 -255 -25 -52 -97 -200 -159
-328 -63 -129 -114 -235 -114 -237 0 -1 -55 -117 -123 -256 -68 -140 -141
-291 -162 -336 -34 -73 -55 -101 -55 -74 0 5 -37 85 -81 177 -45 93 -103 214
-129 269 -48 101 -115 240 -242 505 -39 80 -89 186 -113 235 -23 50 -81 169
-127 265 -46 96 -124 258 -172 360 l-89 185 -99 -2 c-55 -1 -102 -4 -104 -6
-2 -2 35 -84 82 -183 47 -98 101 -210 119 -249 18 -38 64 -135 103 -215 89
-186 181 -376 247 -515 29 -60 83 -173 120 -250 37 -77 84 -176 105 -220 21
-44 68 -143 105 -220 91 -190 178 -370 235 -490 l48 -100 92 190 c91 187 146
302 260 540 32 66 93 192 135 280 43 88 103 214 135 280 83 173 176 367 265
550 43 88 103 214 135 280 32 66 90 188 130 270 137 285 190 397 190 404 0 4
-45 7 -100 6 l-100 0 -17 -35z"/>
</g>
</svg>
