<?xml version="1.0" encoding="UTF-8"?>
<!DOCTYPE svg PUBLIC "-//W3C//DTD SVG 1.1//EN" "http://www.w3.org/Graphics/SVG/1.1/DTD/svg11.dtd">
<!-- Creator: CorelDRAW 2020 (64-Bit) -->
<svg xmlns="http://www.w3.org/2000/svg" xml:space="preserve" width="173.495mm" height="213.325mm" version="1.1" style="shape-rendering:geometricPrecision; text-rendering:geometricPrecision; image-rendering:optimizeQuality; fill-rule:evenodd; clip-rule:evenodd"
viewBox="0 0 17377.67 21367.09"
 xmlns:xlink="http://www.w3.org/1999/xlink"
 xmlns:xodm="http://www.corel.com/coreldraw/odm/2003">
 <defs>
  <style type="text/css">
   <![CDATA[
    .fil2 {fill:#356C2D}
    .fil1 {fill:#E96023}
    .fil0 {fill:#FADF00}
    .fil4 {fill:#FADF00;fill-rule:nonzero}
    .fil3 {fill:#FEFEFE;fill-rule:nonzero}
   ]]>
  </style>
 </defs>
 <g id="Слой_x0020_1">
  <metadata id="CorelCorpID_0Corel-Layer"/>
  <path class="fil0" d="M16724.54 0c362.18,17.29 653.13,318.88 653.13,685.14l0 19996c0,377.22 -308.69,685.95 -685.96,685.95l-16005.74 0c-377.27,0 -685.96,-308.73 -685.96,-685.95l0 -19996c0,-366.26 290.95,-667.85 653.13,-685.14l16071.41 0z"/>
  <path class="fil1" d="M1246.3 671.54l14885.07 0c350.88,0 637.93,287.07 637.93,637.94l0 18747.31c0,350.88 -287.06,637.89 -637.93,637.89l-14885.07 0c-350.87,0 -637.91,-287.02 -637.91,-637.89l0 -18747.31c0,-350.88 287.05,-637.94 637.91,-637.94l0 0z"/>
  <path class="fil2" d="M1688.97 1132.67l13999.93 0c329.85,0 599.81,269.99 599.81,600.02l0 17900.9c0,330.02 -269.96,599.99 -599.81,599.99l-13999.93 0c-330.02,0 -600,-269.97 -600,-599.99l0 -17900.9c0,-330.03 269.98,-600.02 600,-600.02l0 0z"/>
  <path class="fil0" d="M1698.75 15132.93l13980.18 0c87.98,0 160.03,71.88 160.03,160.03l0 3734.14c0,87.97 -72.05,160.03 -160.03,160.03l-13980.18 0c-87.99,0 -160.03,-72.06 -160.03,-160.03l0 -3734.14c0,-88.15 72.04,-160.03 160.03,-160.03l0 0zm-107.26 -97.49l14194.69 0c92.26,0 167.77,75.37 167.77,167.63l0 3913.77c0,92.25 -75.51,167.77 -167.77,167.77l-14194.69 0c-92.26,0 -167.78,-75.52 -167.78,-167.77l0 -3913.77c0,-92.26 75.52,-167.63 167.78,-167.63l0 0z"/>
  <path class="fil3" d="M13144.46 17677.33l765.43 -50.88c16.26,131.27 50.39,231.44 101.41,299.67 83.24,111.24 201.59,167.14 355.93,167.14 114.7,0 203.49,-28.27 265.4,-85.44 62.54,-57.35 93.53,-123.53 93.53,-198.75 0,-71.42 -29.08,-135.69 -87.98,-192.22 -58.94,-56.57 -196.22,-109.19 -411.87,-160.07 -353.56,-83.57 -605.07,-195.41 -755.6,-334.9 -151.84,-138.86 -227.8,-316.28 -227.8,-532.22 0,-141.55 38.83,-275.19 116.57,-401.26 77.74,-126.54 194.3,-225.62 350.56,-297.66 156.11,-72.02 369.82,-107.87 641.4,-107.87 333.35,0 587.37,65.41 762.25,197.31 174.87,131.12 278.83,340.13 312.16,626.7l-757.98 47.57c-20.06,-125.3 -62.54,-216.61 -127.03,-273.14 -64.92,-57.2 -154.17,-85.48 -267.77,-85.48 -93.49,0 -164.59,21.16 -211.97,63.04 -47.42,41.7 -71.13,93.21 -71.13,153.57 0,43.74 19.43,82.92 57.66,118.3 37.14,36.64 127.04,70.13 269.22,101.58 352.29,80.42 604.41,162.08 756.25,244.24 152.44,82.29 263.49,183.89 332.86,306.01 69.18,121.62 103.78,257.8 103.78,408.85 0,176.92 -46.11,340.1 -138.55,489.88 -92.89,149.29 -221.62,263.04 -388.15,340.14 -165.69,77.06 -374.74,115.79 -627.31,115.79 -443.46,0 -750.73,-90.67 -921.5,-271.41 -170.64,-180.6 -267.31,-410.12 -289.75,-688.47l0 0zm-1261.6 -139.5l-284.83 -992.6 -286.1 992.6 570.94 0zm170.78 597.8l-913.59 0 -131.3 455.28 -822.88 0 982.14 -2761.95 882.63 0 977.9 2761.95 -844.41 0 -130.49 -455.28zm-4487.09 -2306.68l842.54 0 587.97 1987.88 579.49 -1987.88 818.16 0 -968.71 2761.95 -873.63 0 -985.82 -2761.95zm-943.76 1708.88l-284.98 -992.6 -286.1 992.6 571.09 0zm170.63 597.8l-913.58 0 -131.13 455.28 -823.05 0 982.13 -2761.95 882.64 0 977.89 2761.95 -844.26 0 -130.64 -455.28zm-4637.61 -2306.68l805.36 0 0 964.47 881.99 0 0 -964.47 809.17 0 0 2761.95 -809.17 0 0 -1118.62 -881.99 0 0 1118.62 -805.36 0 0 -2761.95z"/>
  <polygon class="fil4" points="4491.2,1752.26 7801.94,2393.21 7076.8,6138.4 10702.14,6840.29 11427.24,3095.09 14752.84,3738.87 12676.55,14465.14 9350.75,13821.22 10191.86,9476.81 6566.39,8775.07 5725.48,13119.47 2414.71,12478.56 "/>
 </g>
</svg>
